<svg width="40" height="24" viewBox="0 0 40 24" fill="none" xmlns="http://www.w3.org/2000/svg">
<g filter="url(#filter0_i)">
<path d="M37.4432 11.2218C37.3177 11.1954 37.1991 11.1706 37.0937 11.1431C35.8984 10.8323 35.3529 10.662 34.9495 9.88318L33.4216 6.78988C32.9306 5.84195 31.6627 5.07069 30.5952 5.07069H27.8751V1.49871C27.8751 0.85736 27.3532 0.335526 26.7117 0.335526L7.76603 0.354551C7.1418 0.354551 6.67108 0.850614 6.67108 1.50849V2.56426H1.81769C0.815442 2.56435 0 3.3797 0 4.38204C0 5.38437 0.815442 6.19972 1.81769 6.19972H6.67099V7.94191H3.49337C2.49112 7.94191 1.67568 8.75735 1.67568 9.7596C1.67568 10.7618 2.49112 11.5773 3.49337 11.5773H6.67099V13.3195H5.16905C4.16681 13.3195 3.35136 14.1349 3.35136 15.1372C3.35136 16.1394 4.16681 16.9548 5.16905 16.9548H6.67099V18.777C6.67099 19.4184 7.19282 19.9402 7.83418 19.9402H9.80494C10.1119 22.0437 11.9274 23.6645 14.115 23.6645C16.3027 23.6645 18.1183 22.0437 18.4253 19.9402H26.4011C26.4425 19.9402 26.485 19.9375 26.5273 19.9347C26.8319 22.0409 28.6486 23.6645 30.8381 23.6645C33.0258 23.6645 34.8414 22.0437 35.1484 19.9402H37.9792C39.0935 19.9402 40.0001 19.0337 40.0001 17.9195V14.4906C40 11.7582 38.4613 11.4354 37.4432 11.2218ZM30.8381 17.7251C31.7115 17.7251 32.4222 18.4354 32.4222 19.3086C32.4222 20.1818 31.7115 20.8922 30.8381 20.8922C29.9649 20.8922 29.2546 20.1818 29.2546 19.3086C29.2546 18.4354 29.9649 17.7251 30.8381 17.7251ZM27.8751 10.9755V6.75771H29.9538C30.7527 6.75771 31.7383 7.3572 32.1041 8.06307L33.4637 10.8157C33.4925 10.8714 33.5224 10.9245 33.5534 10.9754L27.8751 10.9755ZM15.6991 19.3085C15.6991 20.1817 14.9884 20.8921 14.115 20.8921C13.2418 20.8921 12.5316 20.1818 12.5316 19.3085C12.5316 18.4353 13.2418 17.725 14.115 17.725C14.9884 17.7251 15.6991 18.4354 15.6991 19.3085Z" fill="white"/>
</g>
<defs>
<filter id="filter0_i" x="0" y="0.335526" width="40.0001" height="24.329" filterUnits="userSpaceOnUse" color-interpolation-filters="sRGB">
<feFlood flood-opacity="0" result="BackgroundImageFix"/>
<feBlend mode="normal" in="SourceGraphic" in2="BackgroundImageFix" result="shape"/>
<feColorMatrix in="SourceAlpha" type="matrix" values="0 0 0 0 0 0 0 0 0 0 0 0 0 0 0 0 0 0 127 0" result="hardAlpha"/>
<feOffset dy="1"/>
<feGaussianBlur stdDeviation="0.5"/>
<feComposite in2="hardAlpha" operator="arithmetic" k2="-1" k3="1"/>
<feColorMatrix type="matrix" values="0 0 0 0 0 0 0 0 0 0 0 0 0 0 0 0 0 0 0.25 0"/>
<feBlend mode="normal" in2="shape" result="effect1_innerShadow"/>
</filter>
</defs>
</svg>
