<?xml version="1.0" standalone="no"?>
<!DOCTYPE svg PUBLIC "-//W3C//DTD SVG 20010904//EN"
 "http://www.w3.org/TR/2001/REC-SVG-20010904/DTD/svg10.dtd">
<svg version="1.0" xmlns="http://www.w3.org/2000/svg"
 width="610.000000pt" height="610.000000pt" viewBox="0 0 610.000000 610.000000"
 preserveAspectRatio="xMidYMid meet">
<metadata>
Created by potrace 1.14, written by Peter Selinger 2001-2017
</metadata>
<g transform="translate(0.000000,610.000000) scale(0.100000,-0.100000)"
fill="#000000" stroke="none">
<path d="M2740 5998 c0 -5 -68 -13 -177 -19 -18 -1 -33 -6 -33 -11 0 -4 -20
-8 -45 -8 -25 0 -45 -4 -45 -8 0 -5 -14 -8 -30 -7 -17 1 -33 -2 -36 -6 -2 -4
-29 -11 -59 -14 -30 -4 -55 -11 -55 -15 0 -13 -49 -18 -54 -6 -3 7 -5 7 -5 -1
-1 -7 -10 -13 -21 -13 -11 0 -20 -4 -20 -9 0 -7 -34 -18 -77 -23 -7 -1 -13 -5
-13 -10 0 -4 -11 -8 -25 -8 -14 0 -25 -5 -25 -11 0 -5 -4 -8 -9 -5 -5 3 -22
-1 -37 -9 -16 -8 -33 -15 -37 -15 -4 0 -35 -13 -68 -30 -33 -16 -57 -24 -53
-18 4 7 -8 1 -26 -12 -19 -14 -43 -26 -54 -27 -11 -2 -27 -10 -36 -18 -9 -8
-22 -15 -28 -15 -7 0 -12 -4 -12 -8 0 -5 -18 -15 -40 -22 -22 -7 -40 -17 -40
-22 0 -4 -7 -8 -15 -8 -8 0 -15 -4 -15 -10 0 -5 -3 -9 -7 -8 -5 1 -27 -10 -50
-25 -24 -15 -47 -27 -53 -27 -5 0 -10 -4 -10 -8 0 -5 -16 -17 -35 -28 -19 -10
-35 -22 -35 -27 0 -4 -4 -6 -9 -3 -5 3 -11 -1 -15 -9 -3 -8 -12 -15 -21 -15
-8 0 -15 -3 -15 -7 0 -5 -25 -26 -55 -47 -30 -22 -55 -43 -55 -48 0 -4 -5 -8
-11 -8 -7 0 -27 -16 -46 -35 -19 -19 -39 -35 -44 -35 -6 0 -8 -4 -5 -9 3 -5
-4 -11 -15 -14 -12 -3 -18 -10 -14 -16 3 -6 1 -11 -6 -11 -6 0 -27 -13 -46
-30 -18 -16 -32 -30 -30 -30 3 0 -14 -19 -37 -43 -22 -23 -44 -41 -48 -39 -5
2 -8 -1 -8 -5 0 -5 -18 -28 -39 -51 -22 -23 -38 -42 -36 -42 2 0 -16 -21 -40
-47 -25 -27 -55 -60 -69 -74 -13 -14 -27 -35 -30 -47 -4 -11 -13 -23 -21 -26
-8 -3 -15 -11 -15 -18 0 -7 -11 -26 -25 -41 -14 -15 -23 -27 -20 -27 4 0 0 -7
-7 -15 -31 -35 -38 -45 -38 -60 0 -8 -4 -15 -9 -15 -5 0 -20 -20 -32 -45 -12
-25 -27 -45 -31 -45 -5 0 -6 -4 -3 -10 3 -5 2 -10 -3 -10 -9 0 -25 -37 -23
-52 1 -5 -3 -8 -8 -8 -8 0 -24 -37 -22 -52 1 -5 -3 -8 -9 -8 -5 0 -10 -7 -10
-15 0 -8 -5 -15 -12 -15 -6 0 -9 -3 -6 -6 3 -3 -7 -31 -23 -62 -16 -31 -29
-63 -29 -69 0 -7 -5 -13 -10 -13 -6 0 -10 -6 -9 -12 2 -18 -12 -58 -20 -58 -4
0 -7 -9 -8 -20 -1 -11 -9 -34 -17 -51 -9 -18 -13 -35 -10 -40 3 -5 0 -9 -5 -9
-6 0 -11 -11 -11 -25 0 -14 -4 -25 -9 -25 -5 0 -12 -23 -16 -50 -4 -28 -10
-48 -15 -45 -4 3 -11 -21 -15 -53 -4 -31 -10 -61 -15 -67 -4 -5 -8 -17 -8 -25
-1 -8 -6 -37 -12 -65 -13 -56 -14 -65 -30 -150 -21 -118 -24 -184 -24 -475 1
-273 5 -384 18 -435 2 -11 5 -37 5 -58 1 -21 4 -36 9 -33 4 2 7 -13 6 -35 0
-22 3 -42 8 -45 4 -3 8 -20 8 -38 0 -18 3 -36 8 -40 4 -4 7 -15 8 -24 1 -19
12 -68 21 -92 4 -8 5 -23 4 -32 -1 -10 2 -18 7 -18 6 0 13 -18 17 -40 4 -22
10 -42 15 -45 4 -3 11 -21 14 -40 4 -19 11 -35 16 -35 6 0 10 -11 10 -25 0
-14 4 -25 9 -25 5 0 7 -10 3 -22 -3 -13 -1 -19 5 -15 7 4 13 -7 17 -28 4 -19
11 -35 16 -35 6 0 9 -3 8 -7 -3 -15 14 -63 23 -63 5 0 9 -9 9 -19 0 -11 7 -26
15 -35 9 -8 16 -19 16 -23 0 -24 12 -52 20 -47 5 3 9 -5 9 -18 0 -13 9 -34 20
-48 11 -14 20 -29 20 -35 0 -5 17 -37 38 -70 20 -33 43 -72 50 -86 8 -14 25
-39 38 -54 13 -15 24 -31 24 -35 0 -4 8 -16 18 -28 9 -11 24 -30 32 -43 8 -12
27 -35 42 -51 16 -16 28 -32 28 -36 0 -5 24 -32 53 -62 28 -29 51 -57 50 -62
-2 -4 4 -8 12 -8 8 0 15 -5 15 -10 0 -10 187 -200 197 -200 3 0 20 -15 38 -32
43 -44 85 -79 85 -72 0 3 12 -8 27 -25 15 -17 33 -31 40 -31 7 0 13 -3 13 -7
0 -5 17 -19 38 -33 41 -28 47 -32 81 -60 13 -11 32 -22 42 -25 11 -4 19 -11
19 -16 0 -5 4 -9 9 -9 6 0 29 -13 53 -29 24 -16 63 -39 88 -52 25 -13 47 -26
50 -29 8 -10 95 -50 109 -50 7 0 10 -4 6 -9 -3 -6 10 -13 29 -17 20 -3 40 -12
47 -20 6 -8 22 -14 35 -14 13 0 24 -4 24 -10 0 -5 6 -10 13 -10 6 -1 30 -9 52
-20 22 -11 48 -19 58 -20 9 0 17 -4 17 -9 0 -5 20 -12 45 -15 25 -4 45 -12 45
-18 0 -5 7 -8 15 -5 8 4 17 2 20 -3 4 -6 17 -10 31 -10 13 0 24 -4 24 -9 0 -5
11 -8 25 -6 14 1 25 -1 25 -5 0 -7 24 -13 85 -24 11 -1 27 -6 35 -9 20 -7 69
-17 100 -21 14 -1 30 -5 36 -9 6 -3 27 -7 47 -9 21 -1 37 -5 37 -8 0 -3 26 -6
58 -6 31 -1 76 -4 100 -7 23 -3 40 -2 38 2 -3 4 1 8 9 8 8 0 12 -3 10 -7 -2
-4 9 -7 25 -8 17 0 30 5 30 11 0 8 3 8 8 2 11 -16 34 -17 44 -3 6 11 10 10 17
-1 8 -13 12 -13 27 0 14 11 16 11 10 1 -7 -12 -4 -12 15 -2 17 10 24 10 27 1
2 -6 9 -8 15 -4 7 4 91 8 187 9 171 2 269 9 320 21 14 3 34 7 45 8 17 2 50 10
135 30 8 2 42 10 75 17 33 7 62 15 65 19 6 7 58 20 83 20 9 0 15 4 12 10 -4 5
6 9 20 9 14 0 47 10 73 22 26 12 50 21 55 20 4 -1 29 9 56 22 52 25 100 41
114 37 5 -1 6 3 3 8 -4 5 7 12 24 16 16 4 30 11 30 17 0 6 6 8 14 5 8 -3 16
-3 18 1 2 4 35 23 73 42 39 19 72 38 75 41 5 6 35 22 90 51 14 7 27 15 30 19
3 4 22 15 42 26 21 11 35 23 31 27 -6 5 13 9 20 4 2 -2 15 9 30 25 16 15 32
27 37 27 10 0 44 27 82 63 10 9 20 17 23 17 3 0 14 8 24 18 11 9 36 31 57 47
47 38 324 311 324 319 0 4 20 27 45 51 25 25 44 48 44 51 -1 6 37 55 79 102
12 14 22 29 22 34 0 5 5 14 10 21 39 47 50 62 55 78 4 11 11 19 16 19 5 0 9 7
9 15 0 8 5 15 12 15 6 0 8 3 5 6 -4 4 2 19 12 33 20 30 35 62 33 74 -1 4 2 7
7 7 5 0 15 16 22 35 7 19 16 35 20 35 4 0 10 13 14 30 4 16 11 30 15 30 5 0
12 16 16 35 3 19 10 32 15 29 5 -3 9 3 9 13 0 11 5 24 12 31 7 7 9 12 4 12 -4
0 0 10 8 22 9 12 16 30 16 40 0 10 5 18 10 18 6 0 10 8 10 18 1 9 9 35 20 57
11 22 19 50 20 63 0 12 4 22 9 22 5 0 12 17 16 38 4 20 11 42 15 47 5 6 8 12
8 15 0 20 16 87 24 97 5 7 7 17 4 22 -4 5 -2 12 4 16 5 3 10 22 10 41 0 19 4
34 9 34 5 0 7 14 6 30 -1 17 1 30 6 30 5 0 9 18 9 39 0 22 5 43 10 46 6 3 8
18 6 31 -3 14 -1 36 4 49 5 13 10 49 11 79 1 31 5 56 8 56 3 0 6 48 6 108 -1
59 3 115 7 125 6 11 5 17 -4 17 -9 0 -9 3 2 10 10 6 11 10 3 10 -9 0 -10 7 -3
25 5 13 6 26 2 29 -4 2 -7 60 -7 129 0 69 -3 123 -6 121 -6 -4 -11 28 -21 158
-2 20 -6 40 -10 44 -5 4 -8 27 -8 51 0 23 -4 43 -9 43 -5 0 -7 14 -6 30 1 17
-1 30 -5 30 -5 0 -11 27 -15 60 -4 33 -10 60 -15 60 -4 0 -10 22 -14 50 -4 27
-11 52 -15 55 -5 3 -12 23 -16 45 -4 22 -10 42 -15 45 -5 3 -11 23 -15 45 -4
22 -10 40 -15 40 -5 0 -11 18 -15 40 -4 22 -11 40 -16 40 -5 0 -9 9 -9 20 0
11 -5 20 -11 20 -5 0 -8 4 -5 8 3 5 -8 35 -24 68 -17 32 -30 65 -30 72 0 6 -4
12 -9 12 -5 0 -12 14 -16 30 -4 17 -11 28 -16 24 -5 -3 -9 0 -9 7 0 19 -40
100 -68 137 -13 17 -21 32 -17 32 3 0 0 7 -7 15 -31 34 -38 45 -38 59 0 7 -7
16 -15 20 -8 3 -15 12 -15 21 0 8 -5 15 -10 15 -6 0 -16 12 -23 27 -11 26 -25
44 -74 100 -13 14 -23 29 -23 34 0 4 -12 21 -27 37 -16 16 -64 69 -108 117
-96 105 -116 125 -127 125 -4 0 -8 7 -8 15 0 8 -4 15 -10 15 -5 0 -31 21 -58
48 -63 62 -99 91 -105 85 -3 -2 -8 5 -12 16 -3 12 -12 21 -19 21 -7 0 -21 9
-31 20 -10 11 -24 20 -32 20 -8 0 -11 5 -8 10 3 6 0 10 -8 10 -8 0 -22 9 -32
20 -10 11 -24 20 -31 20 -7 0 -14 4 -16 8 -3 9 -128 92 -168 112 -14 7 -27 16
-30 20 -3 3 -41 24 -85 46 -44 21 -81 42 -83 47 -2 4 -9 7 -15 7 -7 0 -29 9
-50 20 -20 11 -44 20 -52 20 -8 0 -15 4 -15 9 0 5 -12 12 -27 15 -16 4 -41 13
-58 20 -53 24 -79 34 -150 57 -38 12 -78 26 -88 31 -9 4 -38 11 -62 15 -25 3
-45 10 -45 16 0 5 -11 7 -25 5 -14 -3 -25 -1 -25 3 0 5 -16 9 -35 9 -19 0 -35
4 -35 8 0 5 -16 8 -35 7 -19 0 -35 2 -35 6 0 8 -58 19 -117 21 -24 2 -43 6
-43 10 0 5 -41 8 -91 8 -69 0 -88 3 -83 13 5 8 2 8 -9 -2 -9 -7 -17 -9 -17 -5
0 5 -117 9 -265 9 -146 0 -265 -3 -265 -7z m540 -523 c9 -6 11 -4 5 5 -5 9 -4
11 4 6 6 -4 39 -9 74 -12 34 -2 89 -7 122 -10 33 -3 70 -5 83 -5 12 0 22 -4
22 -9 0 -6 3 -9 8 -8 18 4 141 -15 137 -22 -4 -7 89 -25 108 -22 4 1 7 -2 7
-6 0 -5 36 -19 80 -32 44 -13 80 -27 80 -32 0 -4 3 -7 8 -7 15 3 72 -14 72
-21 0 -4 10 -11 23 -15 12 -4 24 -8 27 -10 3 -1 20 -8 38 -14 17 -7 32 -17 32
-22 0 -5 7 -9 16 -9 9 0 27 -9 41 -20 14 -11 32 -20 39 -20 8 0 14 -4 14 -10
0 -5 6 -10 13 -10 7 0 27 -10 44 -22 17 -13 41 -30 53 -38 12 -8 29 -21 36
-28 8 -7 14 -11 14 -9 0 3 14 -8 31 -24 17 -16 36 -26 42 -22 6 4 7 1 3 -6 -5
-8 0 -14 13 -18 11 -3 18 -9 15 -14 -3 -5 0 -9 6 -9 6 0 56 -45 110 -100 54
-55 96 -100 94 -100 -3 0 1 -6 8 -14 7 -8 17 -11 22 -8 5 3 6 0 3 -5 -4 -6 4
-22 18 -34 13 -13 25 -30 25 -37 0 -7 4 -11 9 -7 5 3 13 -5 17 -17 6 -20 12
-29 40 -61 5 -7 13 -20 17 -29 3 -10 11 -18 18 -18 6 0 9 -7 5 -15 -3 -8 -1
-15 4 -15 10 0 55 -80 52 -92 -1 -5 2 -8 6 -8 5 0 19 -24 33 -52 13 -29 27
-54 32 -56 4 -2 7 -11 7 -21 0 -9 6 -25 13 -36 7 -11 19 -33 25 -50 6 -16 17
-43 23 -60 7 -16 13 -34 15 -40 1 -5 8 -23 15 -40 7 -16 11 -34 10 -39 -1 -4
3 -13 8 -20 5 -6 11 -25 14 -42 3 -17 10 -41 16 -53 7 -11 10 -21 7 -21 -2 0
2 -22 9 -50 7 -27 10 -50 7 -50 -4 0 -2 -4 4 -8 7 -4 13 -23 15 -42 2 -19 5
-39 7 -44 3 -4 6 -27 9 -50 2 -22 6 -61 9 -86 12 -98 14 -471 4 -490 -8 -14
-8 -20 0 -20 6 0 8 -4 5 -10 -3 -5 -8 -36 -10 -67 -2 -32 -4 -58 -5 -58 -2 0
-7 -28 -15 -85 -4 -25 -12 -51 -18 -59 -10 -12 -9 -13 3 -6 12 7 13 6 4 -6
-11 -13 -29 -86 -26 -101 1 -5 -3 -8 -9 -8 -6 0 -9 -7 -6 -15 4 -8 2 -17 -3
-20 -6 -4 -10 -14 -10 -24 0 -10 -7 -31 -14 -47 -8 -15 -13 -31 -10 -36 3 -4
1 -8 -5 -8 -6 0 -8 -7 -5 -15 4 -8 1 -15 -5 -15 -6 0 -10 -3 -9 -7 1 -5 -5
-21 -12 -38 -7 -16 -14 -32 -15 -35 -5 -21 -51 -110 -57 -110 -4 0 -4 -7 -1
-17 4 -11 3 -14 -5 -9 -7 4 -12 1 -12 -8 0 -9 -16 -40 -35 -70 -19 -30 -35
-60 -35 -66 0 -6 -4 -8 -10 -5 -5 3 -10 0 -10 -8 0 -8 -9 -24 -20 -37 -11 -13
-20 -29 -20 -37 0 -8 -4 -11 -10 -8 -5 3 -10 2 -10 -3 0 -5 -8 -18 -17 -30
-10 -11 -29 -35 -43 -53 -38 -50 -217 -229 -228 -229 -6 0 -12 -4 -14 -9 -5
-13 -106 -91 -118 -91 -5 0 -10 -4 -10 -10 0 -5 -11 -12 -25 -16 -14 -4 -24
-9 -21 -12 6 -5 -115 -67 -126 -64 -5 1 -8 -3 -8 -8 0 -6 -9 -10 -20 -10 -11
0 -20 -5 -20 -12 0 -6 -2 -9 -6 -6 -3 3 -27 -3 -53 -13 -27 -10 -51 -15 -55
-12 -3 4 -6 1 -6 -5 0 -7 -16 -12 -41 -12 -22 0 -38 -3 -36 -7 6 -10 -26 -12
-240 -18 -95 -2 -173 0 -173 4 0 4 -16 7 -36 6 -19 -1 -37 2 -40 6 -2 4 -22
10 -44 14 -22 4 -40 11 -40 16 0 5 -11 9 -24 9 -14 0 -28 5 -31 10 -4 6 -11 8
-16 5 -5 -4 -9 -1 -9 4 0 6 -9 11 -20 11 -11 0 -20 4 -20 9 0 5 -13 14 -30 20
-16 5 -30 14 -30 19 0 6 -10 13 -22 16 -25 6 -62 33 -114 83 -19 18 -34 30
-34 28 0 -2 -11 6 -25 19 -14 13 -25 29 -25 35 0 7 -4 9 -10 6 -5 -3 -10 -2
-10 3 0 5 -10 20 -21 33 -12 13 -29 35 -37 49 -9 14 -22 29 -29 33 -7 4 -13
15 -13 22 0 8 -3 15 -7 15 -5 0 -13 10 -19 23 -6 12 -25 49 -42 82 -17 33 -32
67 -34 75 -2 8 -5 17 -8 20 -8 8 -43 112 -43 127 0 7 -4 13 -8 13 -4 0 -6 14
-4 30 3 18 0 28 -5 25 -6 -4 -10 9 -10 29 0 20 -4 36 -9 36 -5 0 -9 12 -9 27
-1 78 -16 200 -26 212 -9 12 -8 13 4 6 12 -6 12 -5 3 5 -15 16 -76 -3 -233
-71 -30 -13 -57 -27 -58 -32 -2 -4 -7 -5 -11 -2 -5 2 -23 -7 -41 -20 -19 -14
-39 -25 -45 -25 -7 0 -20 -9 -30 -20 -10 -11 -22 -17 -26 -14 -5 3 -9 -2 -9
-10 0 -9 -6 -16 -12 -16 -12 0 -58 -39 -138 -113 -43 -41 -100 -108 -100 -119
0 -6 -3 -8 -6 -5 -4 3 -25 -22 -48 -56 -22 -34 -47 -68 -53 -75 -7 -7 -13 -20
-13 -28 0 -8 -4 -14 -8 -14 -7 0 -34 -59 -31 -69 0 -2 -4 -7 -10 -11 -6 -3
-13 -15 -15 -26 -2 -11 -14 -37 -25 -58 -12 -20 -16 -34 -9 -30 10 6 10 5 1
-7 -6 -8 -12 -17 -12 -21 -5 -33 -24 -71 -38 -75 -6 -2 -25 11 -44 29 -18 18
-36 32 -41 31 -4 -2 -8 3 -8 11 0 8 -9 18 -21 21 -11 4 -18 9 -15 12 4 5 -6
15 -65 69 -13 12 -40 40 -59 64 -19 23 -45 53 -57 65 -12 13 -19 26 -16 29 4
3 1 6 -5 6 -11 0 -142 193 -142 210 0 5 -4 10 -9 10 -5 0 -12 13 -16 30 -4 16
-11 30 -16 30 -5 0 -11 11 -15 25 -3 14 -10 25 -15 25 -5 0 -9 9 -9 20 0 11
-5 20 -11 20 -5 0 -7 5 -3 11 3 6 2 14 -3 18 -14 9 -53 106 -54 133 0 15 -3
18 -7 8 -6 -15 -33 65 -36 107 0 11 -4 19 -8 16 -5 -2 -8 7 -8 21 0 14 -5 26
-11 26 -5 0 -9 8 -7 18 1 9 -1 22 -4 28 -4 6 -9 25 -10 43 -1 17 -5 31 -8 31
-4 0 -7 6 -7 13 -3 48 -18 113 -27 119 -7 5 -7 8 2 8 8 0 10 5 5 13 -4 6 -7
38 -8 69 0 31 -3 60 -7 64 -4 4 -3 13 3 20 7 8 7 14 -1 19 -5 3 -10 13 -10 21
0 10 5 12 13 8 9 -6 9 -4 1 7 -6 8 -12 34 -13 57 -1 34 1 42 11 36 10 -6 10
-5 2 7 -16 19 -17 139 -1 158 9 12 9 13 -1 7 -6 -4 -12 -2 -12 3 0 6 6 11 13
11 9 0 8 3 -2 9 -10 7 -11 13 -2 30 9 16 9 21 0 21 -8 0 -8 4 -2 13 5 6 9 36
9 65 -1 28 2 52 7 52 4 0 7 16 7 36 0 19 4 33 8 30 5 -3 8 4 7 16 -1 11 5 43
13 72 8 28 14 61 13 74 0 13 3 21 8 18 8 -5 21 44 22 87 0 9 4 15 8 12 5 -2
11 13 15 35 3 22 11 40 18 40 6 0 9 3 5 6 -7 7 11 63 27 83 6 7 11 19 11 25 2
18 34 84 45 91 5 3 10 13 10 22 0 8 9 27 19 41 10 15 19 29 19 32 0 11 38 70
45 70 4 0 7 6 7 14 0 7 7 19 15 26 8 7 12 16 9 21 -3 5 0 9 5 9 6 0 11 7 11
16 0 8 5 12 10 9 6 -3 10 1 10 9 0 8 8 20 18 25 9 6 13 11 9 11 -8 0 2 14 41
55 12 13 22 29 22 34 0 6 6 14 14 18 8 4 33 32 56 61 25 30 47 49 53 45 7 -3
9 -3 5 2 -4 4 5 21 21 36 16 15 27 30 23 33 -3 3 0 6 6 6 6 0 28 16 48 35 19
19 40 35 45 35 6 0 8 4 4 9 -3 5 4 12 15 16 11 3 20 10 20 15 0 5 16 18 35 30
19 12 33 26 29 31 -3 5 -2 8 3 7 10 -3 92 50 114 74 9 10 19 15 22 11 4 -3 16
4 26 16 11 12 21 22 23 21 12 -3 67 24 62 31 -3 5 4 9 14 9 11 0 25 6 31 14 7
8 27 17 46 20 19 4 35 11 35 16 0 4 14 11 30 15 17 4 30 11 30 16 0 5 3 8 8 8
18 -4 72 15 72 24 0 6 3 8 6 4 4 -3 19 0 34 8 15 8 30 11 34 8 3 -4 6 -1 6 5
0 7 3 11 8 10 11 -3 76 13 87 22 6 4 30 11 55 15 25 4 47 11 50 15 3 4 32 11
65 15 33 3 62 10 65 13 3 4 16 8 30 9 41 3 140 19 144 24 8 8 282 3 296 -6z"/>
<path d="M4130 4964 c0 -9 -23 -24 -72 -44 -16 -7 -28 -16 -28 -21 0 -5 -5 -9
-12 -9 -13 0 -162 -99 -166 -111 -2 -5 -10 -9 -17 -9 -8 0 -18 -6 -22 -13 -4
-6 -26 -26 -48 -42 -22 -16 -77 -66 -122 -111 -45 -45 -85 -79 -88 -76 -3 3
-5 1 -5 -5 0 -5 -13 -24 -30 -41 -16 -18 -30 -35 -30 -38 0 -4 -16 -21 -35
-40 -19 -18 -35 -40 -35 -49 0 -9 -4 -14 -8 -11 -5 3 -15 -6 -22 -19 -7 -14
-17 -25 -22 -25 -4 0 -8 -7 -8 -15 0 -8 -5 -15 -11 -15 -5 0 -15 -13 -20 -30
-6 -16 -14 -30 -19 -30 -4 0 -10 -8 -14 -17 -3 -10 -11 -27 -18 -38 -7 -11
-20 -31 -29 -45 -9 -14 -36 -63 -60 -110 -24 -47 -47 -88 -52 -91 -5 -3 -8 -9
-8 -13 0 -3 -14 -39 -33 -78 -56 -121 -76 -170 -76 -184 0 -8 -5 -14 -10 -14
-6 0 -9 -3 -8 -7 3 -13 -14 -57 -31 -79 -12 -15 -27 -21 -54 -20 -20 1 -37 -1
-37 -5 0 -3 -19 -6 -42 -8 -23 -1 -47 -6 -54 -11 -6 -6 -14 -7 -17 -3 -4 3
-12 1 -19 -5 -7 -5 -22 -12 -33 -14 -11 -1 -23 -7 -27 -13 -7 -10 -12 -11 -44
-14 -8 0 -13 -5 -10 -10 4 -5 -7 -12 -24 -16 -17 -4 -28 -11 -24 -16 3 -5 -1
-9 -8 -9 -16 0 -48 -22 -90 -62 -16 -15 -31 -27 -33 -28 -3 0 -24 -22 -47 -48
-24 -26 -46 -48 -50 -50 -5 -2 -8 -10 -8 -17 0 -7 -5 -15 -11 -17 -12 -4 -62
-86 -80 -130 -6 -16 -15 -28 -19 -28 -5 0 -11 -13 -15 -30 -4 -16 -10 -30 -14
-30 -6 0 -31 -58 -31 -73 0 -3 12 1 28 9 15 7 33 14 40 14 6 0 12 4 12 9 0 5
13 12 30 16 17 4 30 10 30 15 0 8 57 24 77 21 7 -1 13 3 13 9 0 12 6 12 180
13 146 1 201 -3 194 -15 -3 -4 4 -8 15 -8 12 0 18 -5 15 -13 -2 -7 -6 -33 -8
-57 -2 -25 -5 -45 -6 -45 -1 0 -3 -11 -4 -25 0 -14 -5 -31 -9 -37 -5 -8 -3
-13 6 -13 8 0 17 -6 20 -13 3 -7 28 -24 55 -37 28 -13 49 -27 46 -31 -2 -4 4
-6 13 -4 10 2 20 4 23 4 3 1 20 15 38 31 18 17 38 30 44 30 6 0 8 3 5 7 -10
10 48 42 70 38 10 -2 21 -4 25 -4 4 -1 10 -10 13 -21 4 -11 9 -19 13 -17 10 5
42 -30 34 -37 -3 -3 0 -6 6 -6 7 0 12 -7 12 -15 0 -7 6 -18 13 -22 24 -15 107
-179 107 -211 0 -13 4 -21 9 -18 4 3 7 -12 6 -34 -1 -22 1 -40 4 -40 4 0 7
-15 7 -32 2 -73 8 -128 14 -128 10 0 50 49 50 60 0 6 7 13 15 16 8 4 15 12 15
19 0 8 7 20 15 29 9 8 16 19 17 23 4 27 11 43 19 43 5 0 9 7 9 15 0 8 5 15 11
15 5 0 8 4 4 10 -3 5 -1 17 4 27 43 76 83 218 84 296 0 29 4 43 9 35 5 -9 8
-10 8 -1 0 6 -5 15 -10 18 -7 4 -6 13 1 26 7 14 7 24 0 33 -6 7 -10 28 -10 47
0 19 -3 45 -6 59 -4 14 -7 35 -6 48 0 13 -4 20 -9 17 -6 -4 -10 5 -10 20 0 14
-4 24 -9 21 -4 -3 -6 6 -3 21 3 18 1 24 -7 19 -7 -5 -11 0 -11 13 0 11 -5 23
-10 26 -6 4 -8 10 -5 15 3 4 -2 13 -10 20 -23 19 -18 37 21 75 20 19 33 35 29
35 -4 0 9 19 29 43 54 62 62 71 56 72 -4 0 52 79 80 113 6 7 8 17 4 24 -4 7
-3 8 4 4 7 -4 12 -1 12 6 0 7 11 26 25 41 14 15 23 27 20 27 -2 0 9 22 25 49
17 26 30 53 30 60 0 6 5 11 10 11 6 0 10 7 10 15 0 8 4 15 10 15 5 0 9 3 9 8
-3 12 25 72 33 72 4 0 8 5 8 11 0 5 10 31 22 57 12 26 23 49 23 52 1 3 7 19
15 35 34 79 40 94 40 108 0 9 4 18 9 21 5 4 12 24 16 46 4 22 11 40 16 40 5 0
8 3 7 8 -2 7 5 46 18 102 3 14 7 34 8 45 1 11 5 26 9 33 5 7 3 12 -5 12 -9 0
-10 2 -2 8 7 4 13 23 15 42 2 19 5 39 8 44 4 10 11 138 14 296 1 52 5 97 8
100 3 3 -2 14 -12 24 -11 11 -19 15 -19 10z"/>
</g>
</svg>
